{
  "accessors": [
    {
      "bufferView": 2,
      "componentType": 5126,
      "count": 1541,
      "max": [
        4.064525127410889,
        0.0276710856705904,
        2.6370227336883545
      ],
      "min": [
        -4.065038681030273,
        -3.166942596435547,
        -2.6120193004608154
      ],
      "type": "VEC3"
    },
    {
      "bufferView": 2,
      "byteOffset": 18492,
      "componentType": 5126,
      "count": 1541,
      "max": [
        0.40248584747314453,
        0.9999997019767761,
        0.29146188497543335
      ],
      "min": [
        -0.27925461530685425,
        0.8364989161491394,
        -0.3718530833721161
      ],
      "type": "VEC3"
    },
    {
      "bufferView": 1,
      "componentType": 5126,
      "count": 1541,
      "max": [
        1.0,
        1.0
      ],
      "min": [
        0.0,
        0.0
      ],
      "type": "VEC2"
    },
    {
      "bufferView": 0,
      "componentType": 5125,
      "count": 7647,
      "type": "SCALAR"
    },
    {
      "bufferView": 2,
      "byteOffset": 36984,
      "componentType": 5126,
      "count": 6995,
      "max": [
        4.181129455566406,
        3.996159315109253,
        2.710247278213501
      ],
      "min": [
        -4.181129455566406,
        -3.523488345535952e-08,
        -2.710247278213501
      ],
      "type": "VEC3"
    },
    {
      "bufferView": 2,
      "byteOffset": 120924,
      "componentType": 5126,
      "count": 6995,
      "max": [
        1.0,
        1.0,
        1.0
      ],
      "min": [
        -1.0,
        -1.0,
        -1.0
      ],
      "type": "VEC3"
    },
    {
      "bufferView": 1,
      "byteOffset": 12328,
      "componentType": 5126,
      "count": 6995,
      "max": [
        0.18617308139801025,
        0.18200638890266418
      ],
      "min": [
        0.038826942443847656,
        0.03466024994850159
      ],
      "type": "VEC2"
    },
    {
      "bufferView": 0,
      "byteOffset": 30588,
      "componentType": 5125,
      "count": 10464,
      "type": "SCALAR"
    },
    {
      "bufferView": 2,
      "byteOffset": 204864,
      "componentType": 5126,
      "count": 2606,
      "max": [
        1.7900935411453247,
        4.445631980895996,
        1.7900935411453247
      ],
      "min": [
        -1.7900935411453247,
        0.5228210091590881,
        -1.7900935411453247
      ],
      "type": "VEC3"
    },
    {
      "bufferView": 2,
      "byteOffset": 236136,
      "componentType": 5126,
      "count": 2606,
      "max": [
        1.0,
        1.0,
        1.0
      ],
      "min": [
        -1.0,
        -1.0,
        -1.0
      ],
      "type": "VEC3"
    },
    {
      "bufferView": 1,
      "byteOffset": 68288,
      "componentType": 5126,
      "count": 2606,
      "max": [
        0.19867920875549316,
        0.1736791729927063
      ],
      "min": [
        0.12632083892822266,
        0.10132080316543579
      ],
      "type": "VEC2"
    },
    {
      "bufferView": 0,
      "byteOffset": 72444,
      "componentType": 5125,
      "count": 3732,
      "type": "SCALAR"
    }
  ],
  "asset": {
    "extras": {
      "author": "pino (https://sketchfab.com/toomuchpino)",
      "license": "CC-BY-4.0 (http://creativecommons.org/licenses/by/4.0/)",
      "source": "https://sketchfab.com/3d-models/low-poly-outdoor-water-fountain-04818a36d01843288ccf5958456218da",
      "title": "Low-poly outdoor water fountain"
    },
    "generator": "Sketchfab-15.29.0",
    "version": "2.0"
  },
  "bufferViews": [
    {
      "buffer": 0,
      "byteLength": 87372,
      "name": "floatBufferViews",
      "target": 34963
    },
    {
      "buffer": 0,
      "byteLength": 89136,
      "byteOffset": 87372,
      "byteStride": 8,
      "name": "floatBufferViews",
      "target": 34962
    },
    {
      "buffer": 0,
      "byteLength": 267408,
      "byteOffset": 176508,
      "byteStride": 12,
      "name": "floatBufferViews",
      "target": 34962
    }
  ],
  "buffers": [
    {
      "byteLength": 443916,
      "uri": "scene.bin"
    }
  ],
  "materials": [
    {
      "alphaMode": "BLEND",
      "doubleSided": true,
      "name": "Material",
      "pbrMetallicRoughness": {
        "baseColorFactor": [
          0.10584859976388963,
          0.2785012239462546,
          0.715855893155135,
          0.7620929432816334
        ],
        "metallicFactor": 0.0,
        "roughnessFactor": 0.5
      }
    },
    {
      "doubleSided": true,
      "name": "Material.001",
      "pbrMetallicRoughness": {
        "baseColorFactor": [
          0.3956489701663151,
          0.3995513690072043,
          0.2635575628529067,
          1.0
        ],
        "metallicFactor": 0.0,
        "roughnessFactor": 0.5
      }
    },
    {
      "doubleSided": true,
      "name": "Material.002",
      "pbrMetallicRoughness": {
        "baseColorFactor": [
          0.3956489701663151,
          0.3995513690072043,
          0.2635575628529067,
          1.0
        ],
        "metallicFactor": 0.0,
        "roughnessFactor": 0.5
      }
    }
  ],
  "meshes": [
    {
      "name": "Object_0",
      "primitives": [
        {
          "attributes": {
            "NORMAL": 1,
            "POSITION": 0,
            "TEXCOORD_0": 2
          },
          "indices": 3,
          "material": 0,
          "mode": 4
        }
      ]
    },
    {
      "name": "Object_1",
      "primitives": [
        {
          "attributes": {
            "NORMAL": 5,
            "POSITION": 4,
            "TEXCOORD_0": 6
          },
          "indices": 7,
          "material": 1,
          "mode": 4
        }
      ]
    },
    {
      "name": "Object_2",
      "primitives": [
        {
          "attributes": {
            "NORMAL": 9,
            "POSITION": 8,
            "TEXCOORD_0": 10
          },
          "indices": 11,
          "material": 2,
          "mode": 4
        }
      ]
    }
  ],
  "nodes": [
    {
      "children": [
        1
      ],
      "matrix": [
        1.0,
        0.0,
        0.0,
        0.0,
        0.0,
        2.220446049250313e-16,
        -1.0,
        0.0,
        0.0,
        1.0,
        2.220446049250313e-16,
        0.0,
        0.0,
        0.0,
        0.0,
        1.0
      ],
      "name": "Sketchfab_model"
    },
    {
      "children": [
        2
      ],
      "name": "root"
    },
    {
      "children": [
        3,
        5,
        7
      ],
      "matrix": [
        1.0,
        0.0,
        0.0,
        0.0,
        0.0,
        2.220446049250313e-16,
        1.0,
        0.0,
        0.0,
        -1.0,
        2.220446049250313e-16,
        0.0,
        0.0,
        0.0,
        0.0,
        1.0
      ],
      "name": "GLTF_SceneRootNode"
    },
    {
      "children": [
        4
      ],
      "matrix": [
        1.0,
        0.0,
        0.0,
        0.0,
        0.0,
        1.0,
        0.0,
        0.0,
        0.0,
        0.0,
        1.0,
        0.0,
        0.0002567809133324772,
        3.91760516166687,
        -0.012501716613769531,
        1.0
      ],
      "name": "Water_0"
    },
    {
      "mesh": 0,
      "name": "Object_4"
    },
    {
      "children": [
        6
      ],
      "name": "Flowers_1"
    },
    {
      "mesh": 1,
      "name": "Object_6"
    },
    {
      "children": [
        8
      ],
      "name": "Cylinders_2"
    },
    {
      "mesh": 2,
      "name": "Object_8"
    }
  ],
  "scene": 0,
  "scenes": [
    {
      "name": "Sketchfab_Scene",
      "nodes": [
        0
      ]
    }
  ]
}
